# xmcd CD database file
#
# Track frame offsets:
#	150
#	31037
#	73159
#	110226
#	137071
#	177737
#	199230
#	225331
#
# Disc length: 3267 seconds
#
# Revision: 0
# Processed by: cddbd v1.5.2PL0 Copyright (c) Steve Scherf et al.
# Submitted via: CDex 1.84
#
DISCID=730cc108
DTITLE=Jack DeJohnette, Ravi Coltrane and Matt Garrison - In Movement
DYEAR=2016
DGENRE=Jazz
TTITLE0=Alabama
TTITLE1=In Movement
TTITLE2=Two Jimmys
TTITLE3=Blue In Green
TTITLE4=Serpentine Fire
TTITLE5=Lydia
TTITLE6=Rashied
TTITLE7=Soulful Ballad
EXTD=YEAR: 2016
EXTT0=
EXTT1=
EXTT2=
EXTT3=
EXTT4=
EXTT5=
EXTT6=
EXTT7=
PLAYORDER=
